<?xml version="1.0" encoding="UTF-8"?>
<svg xmlns="http://www.w3.org/2000/svg" xmlns:xlink="http://www.w3.org/1999/xlink" width="200px" height="75px" viewBox="0 0 200 75" version="1.1">
<g id="surface1">
<path style=" stroke:none;fill-rule:nonzero;fill:rgb(0%,0%,0%);fill-opacity:1;" d="M 72.34375 0.3125 C 72.1875 0.332031 71.210938 0.410156 70.195312 0.488281 C 63.320312 0.976562 56.015625 2.519531 47.910156 5.175781 C 42.34375 6.992188 38.398438 8.574219 31.171875 11.816406 C 23.4375 15.292969 21.054688 15.976562 12.988281 16.992188 C 9.023438 17.5 6.289062 17.949219 5.292969 18.261719 C 4.355469 18.535156 3.769531 19.023438 3.339844 19.921875 C 3.007812 20.605469 2.929688 20.878906 2.890625 21.855469 C 2.851562 22.539062 2.890625 23.359375 2.96875 23.867188 C 3.222656 25.253906 4.003906 27.519531 5 29.804688 C 6.523438 33.28125 6.660156 33.515625 6.992188 33.59375 C 7.753906 33.808594 20.625 33.164062 22.050781 32.871094 C 23.710938 32.519531 24.257812 32.109375 25.234375 30.429688 C 26.582031 28.105469 29.296875 25.332031 32.1875 23.28125 C 34.921875 21.328125 36.25 20.957031 40.527344 20.957031 C 44.316406 20.957031 45.878906 21.210938 47.871094 22.148438 C 49.53125 22.929688 51.503906 24.746094 52.695312 26.5625 C 53.046875 27.070312 53.925781 28.730469 54.667969 30.253906 L 56.035156 33.007812 L 62.265625 33.085938 C 72.34375 33.222656 103.183594 33.398438 132.792969 33.476562 L 160.390625 33.554688 L 161.523438 32.617188 C 165.878906 28.90625 168.144531 27.5 171.09375 26.640625 C 175.898438 25.234375 180.117188 25.566406 184.277344 27.675781 C 185.625 28.339844 187.617188 29.648438 188.554688 30.488281 C 191.210938 32.8125 192.597656 33.671875 192.96875 33.222656 C 193.632812 32.402344 190.585938 29.0625 187.109375 26.796875 C 185.898438 25.996094 183.59375 24.921875 181.972656 24.375 C 179.589844 23.59375 173.710938 22.148438 169.199219 21.269531 C 166.25 20.683594 164.082031 20.332031 160.078125 19.765625 C 155.976562 19.179688 154.355469 19.003906 148.984375 18.613281 C 142.519531 18.125 139.042969 17.695312 136.992188 17.128906 C 135.429688 16.699219 134.550781 16.289062 126.40625 12.382812 C 120.234375 9.453125 114.140625 6.914062 109.707031 5.46875 C 107.050781 4.589844 103.964844 3.769531 99.765625 2.832031 C 91.230469 0.878906 85.039062 0.214844 76.230469 0.253906 C 74.257812 0.253906 72.519531 0.292969 72.34375 0.3125 Z M 92.363281 3.59375 C 101.074219 3.925781 105.039062 4.882812 115.859375 9.179688 C 120.527344 11.054688 124.296875 12.753906 129.550781 15.390625 C 132.089844 16.660156 134.492188 17.832031 134.921875 17.988281 C 136.777344 18.691406 139.316406 19.121094 143.144531 19.394531 C 146.523438 19.628906 148.886719 19.882812 152.753906 20.410156 C 162.988281 21.816406 173.632812 23.75 173.359375 24.179688 C 173.339844 24.238281 172.988281 24.316406 172.617188 24.375 C 170.3125 24.648438 167.324219 25.859375 164.0625 27.8125 C 162.519531 28.75 162.148438 29.023438 161.484375 29.707031 C 160.703125 30.527344 160 30.703125 156.191406 31.074219 C 152.34375 31.445312 106.738281 31.582031 92.910156 31.230469 C 76.914062 30.859375 67.753906 29.84375 62.011719 27.851562 C 58.476562 26.601562 56.503906 25.410156 52.929688 22.285156 C 50.273438 19.980469 49.765625 19.6875 47.773438 19.257812 C 46.621094 19.003906 46.210938 19.003906 42.011719 18.984375 C 37.246094 18.984375 36.542969 19.042969 33.847656 19.628906 C 29.921875 20.527344 26.992188 22.441406 25.039062 25.449219 C 24.375 26.464844 23.007812 29.140625 22.207031 31.015625 L 21.972656 31.5625 L 17.558594 31.523438 C 15.136719 31.503906 12.519531 31.425781 11.699219 31.386719 C 9.316406 31.210938 8.632812 30.761719 6.972656 28.164062 C 6.289062 27.089844 5.410156 25.351562 5.175781 24.589844 C 4.921875 23.730469 4.960938 22.65625 5.234375 22.167969 C 5.566406 21.640625 6.425781 21.113281 7.382812 20.898438 C 7.8125 20.800781 9.453125 20.566406 11.015625 20.351562 C 17.441406 19.53125 22.480469 18.496094 28.242188 16.816406 C 32.714844 15.527344 34.785156 14.765625 46.425781 10.234375 C 51.699219 8.183594 53.652344 7.519531 58.203125 6.230469 C 63.085938 4.84375 68.496094 3.90625 73.417969 3.613281 C 75.664062 3.457031 88.789062 3.457031 92.363281 3.59375 Z M 92.363281 3.59375 "/>
<path style=" stroke:none;fill-rule:nonzero;fill:rgb(0%,0%,0%);fill-opacity:1;" d="M 80.273438 6.054688 C 70.722656 6.386719 66.5625 6.660156 62.695312 7.246094 C 57.988281 7.949219 52.636719 9.628906 47.96875 11.894531 C 44.453125 13.59375 43.125 14.765625 44.023438 15.390625 C 45.019531 16.113281 51.152344 17.480469 55.664062 18.007812 C 64.101562 19.003906 92.597656 19.667969 110.371094 19.277344 C 116.679688 19.140625 121.679688 18.964844 123.964844 18.789062 C 125.722656 18.652344 127.617188 18.359375 127.714844 18.183594 C 127.871094 17.949219 127.460938 17.558594 126.191406 16.71875 C 122.460938 14.238281 116.09375 11.308594 108.945312 8.789062 C 105 7.402344 102.089844 6.875 96.132812 6.464844 C 92.03125 6.191406 83.125 5.957031 80.273438 6.054688 Z M 80.273438 6.054688 "/>
<path style=" stroke:none;fill-rule:nonzero;fill:rgb(0%,0%,0%);fill-opacity:1;" d="M 24.296875 35.898438 L 23.046875 35.976562 L 22.636719 36.464844 C 21.738281 37.519531 20.429688 39.003906 17.753906 41.972656 C 14.257812 45.878906 13.359375 46.875 12.949219 47.441406 C 12.363281 48.222656 12.265625 47.988281 12.617188 46.523438 C 12.675781 46.25 12.792969 45.742188 12.871094 45.371094 C 12.949219 45.019531 13.066406 44.53125 13.105469 44.296875 C 13.164062 44.082031 13.28125 43.457031 13.398438 42.929688 C 13.945312 40.292969 14.296875 38.730469 14.414062 38.203125 C 14.6875 37.011719 14.804688 36.425781 14.824219 36.210938 C 14.84375 35.996094 14.746094 35.976562 11.757812 35.9375 C 10.078125 35.9375 8.691406 35.9375 8.691406 35.976562 C 8.691406 36.054688 8.28125 38.105469 8.105469 38.847656 C 7.890625 39.785156 7.753906 40.46875 7.617188 41.015625 C 7.558594 41.308594 7.460938 41.777344 7.382812 42.050781 C 7.324219 42.34375 7.089844 43.476562 6.855469 44.609375 C 6.621094 45.722656 6.367188 46.875 6.308594 47.167969 C 6.230469 47.480469 6.132812 47.949219 6.054688 48.222656 C 5.996094 48.496094 5.898438 48.984375 5.820312 49.296875 C 5.761719 49.609375 5.664062 50.078125 5.605469 50.351562 C 5.546875 50.605469 5.292969 51.738281 5.058594 52.871094 C 4.84375 53.984375 4.589844 55.136719 4.511719 55.429688 C 4.433594 55.742188 4.355469 56.191406 4.296875 56.445312 C 4.21875 56.71875 4.140625 57.167969 4.0625 57.480469 C 3.554688 59.707031 3.066406 62.148438 3.125 62.304688 C 3.203125 62.480469 3.554688 62.5 6.035156 62.5 C 7.597656 62.5 8.945312 62.460938 9.042969 62.382812 C 9.179688 62.304688 9.296875 61.875 9.765625 59.628906 C 9.980469 58.59375 10.46875 56.328125 10.722656 55.195312 C 10.859375 54.570312 11.015625 53.828125 11.074219 53.515625 C 11.132812 53.222656 11.328125 52.34375 11.484375 51.542969 C 11.660156 50.761719 11.796875 50.078125 11.796875 50.019531 C 11.796875 49.746094 12.03125 50 12.207031 50.488281 C 12.421875 51.054688 14.824219 55.976562 15.019531 56.210938 C 15.214844 56.484375 17.988281 62.050781 17.988281 62.207031 C 17.988281 62.285156 18.105469 62.382812 18.261719 62.421875 C 18.613281 62.519531 24.882812 62.519531 25.234375 62.421875 C 25.507812 62.363281 25.488281 62.304688 24.628906 60.664062 C 24.160156 59.726562 23.007812 57.65625 22.089844 56.035156 C 20.019531 52.402344 18.808594 50.15625 18.476562 49.414062 L 18.242188 48.847656 L 18.867188 48.105469 C 19.199219 47.695312 20.957031 45.839844 22.753906 44.003906 C 30.019531 36.5625 30.449219 36.113281 30.332031 35.898438 C 30.253906 35.800781 26.523438 35.800781 24.296875 35.898438 Z M 24.296875 35.898438 "/>
<path style=" stroke:none;fill-rule:nonzero;fill:rgb(0%,0%,0%);fill-opacity:1;" d="M 81.777344 36.542969 C 81.503906 37.734375 81.425781 38.125 80.878906 40.703125 C 80.566406 42.128906 80.273438 43.515625 80.195312 43.828125 C 80.136719 44.121094 80.039062 44.570312 79.980469 44.84375 C 79.863281 45.371094 79.6875 46.152344 79.511719 46.933594 C 79.453125 47.226562 79.199219 48.378906 78.964844 49.511719 C 78.730469 50.625 78.476562 51.757812 78.417969 52.03125 C 78.085938 53.457031 77.929688 54.160156 77.753906 55.019531 C 77.65625 55.546875 77.519531 56.171875 77.480469 56.386719 C 77.265625 57.363281 77.070312 58.144531 76.992188 58.613281 C 76.933594 58.867188 76.835938 59.335938 76.777344 59.628906 C 76.289062 61.738281 76.191406 62.324219 76.308594 62.402344 C 76.40625 62.460938 77.597656 62.5 78.964844 62.5 C 80.957031 62.5 81.523438 62.460938 81.640625 62.324219 C 81.757812 62.1875 81.816406 61.933594 82.128906 60.410156 C 82.1875 60.078125 82.285156 59.589844 82.34375 59.335938 C 82.402344 59.0625 82.558594 58.300781 82.695312 57.65625 C 82.851562 56.992188 83.007812 56.230469 83.066406 55.976562 C 83.222656 55.332031 84.023438 51.582031 84.570312 49.023438 C 84.804688 47.910156 85.039062 46.777344 85.097656 46.523438 C 85.3125 45.605469 85.371094 45.3125 85.585938 44.003906 C 86.054688 41.191406 86.035156 41.230469 86.191406 41.445312 C 86.25 41.523438 86.289062 42.148438 86.289062 42.8125 C 86.289062 44.160156 86.347656 44.414062 87.65625 48.847656 C 88.105469 50.332031 88.652344 52.207031 88.886719 53.007812 L 89.316406 54.472656 L 93.632812 54.472656 L 97.207031 49.667969 C 100.898438 44.6875 101.367188 44.042969 102.167969 42.441406 C 102.714844 41.386719 102.714844 41.347656 102.792969 41.445312 C 102.832031 41.484375 102.773438 41.933594 102.617188 42.441406 C 102.5 42.929688 102.285156 43.730469 102.148438 44.199219 C 102.03125 44.6875 101.582031 46.71875 101.152344 48.730469 C 100.703125 50.742188 100.292969 52.617188 100.234375 52.890625 C 100.019531 53.886719 99.902344 54.433594 99.472656 56.445312 C 98.984375 58.808594 98.984375 58.730469 98.378906 61.40625 C 98.203125 62.148438 98.203125 62.304688 98.339844 62.382812 C 98.515625 62.5 103.007812 62.539062 103.417969 62.421875 C 103.59375 62.382812 103.691406 62.207031 103.808594 61.679688 C 103.867188 61.308594 103.984375 60.761719 104.0625 60.46875 C 104.140625 60.15625 104.238281 59.707031 104.296875 59.453125 C 104.355469 59.179688 104.453125 58.730469 104.511719 58.4375 C 104.589844 58.125 104.785156 57.226562 104.960938 56.386719 C 105.117188 55.566406 105.371094 54.472656 105.488281 53.945312 C 105.605469 53.417969 105.957031 51.816406 106.25 50.410156 C 106.5625 49.003906 106.855469 47.597656 106.914062 47.324219 C 107.148438 46.347656 107.285156 45.683594 107.402344 45.15625 C 107.460938 44.882812 107.558594 44.433594 107.636719 44.140625 C 107.695312 43.867188 107.929688 42.714844 108.164062 41.601562 C 108.398438 40.488281 108.632812 39.355469 108.691406 39.101562 C 108.769531 38.828125 108.867188 38.320312 108.945312 37.949219 C 109.023438 37.597656 109.121094 37.148438 109.199219 36.953125 C 109.257812 36.757812 109.296875 36.445312 109.296875 36.269531 L 109.296875 35.917969 L 101.484375 35.917969 L 101.113281 36.425781 C 100.898438 36.71875 99.296875 38.867188 97.5 41.25 C 94.746094 44.902344 94.160156 45.800781 93.476562 47.128906 C 93.046875 48.007812 92.636719 48.691406 92.597656 48.652344 C 92.558594 48.632812 92.480469 48.222656 92.441406 47.753906 C 92.324219 46.5625 92.148438 45.839844 91.230469 42.773438 C 90.800781 41.347656 90.175781 39.21875 89.824219 38.066406 L 89.21875 35.976562 L 85.566406 35.9375 L 81.933594 35.917969 Z M 102.949219 41.210938 C 102.910156 41.308594 102.871094 41.269531 102.871094 41.132812 C 102.851562 41.015625 102.890625 40.9375 102.929688 40.976562 C 102.96875 41.015625 102.988281 41.132812 102.949219 41.210938 Z M 102.949219 41.210938 "/>
<path style=" stroke:none;fill-rule:nonzero;fill:rgb(0%,0%,0%);fill-opacity:1;" d="M 153.007812 38.417969 C 151.425781 38.886719 151.621094 38.671875 151.269531 40.3125 C 150.976562 41.738281 150.878906 42.128906 150.722656 42.753906 L 150.566406 43.398438 L 147.402344 43.515625 L 147.148438 44.6875 C 146.953125 45.488281 146.914062 45.878906 147.011719 45.976562 C 147.089844 46.054688 147.734375 46.09375 148.535156 46.09375 C 150.117188 46.09375 150.039062 46.054688 149.84375 46.992188 C 149.648438 47.832031 149.472656 48.632812 149.21875 49.804688 C 149.082031 50.429688 148.789062 51.816406 148.574219 52.871094 C 148.339844 53.90625 148.027344 55.429688 147.851562 56.210938 C 147.265625 58.867188 147.480469 60.839844 148.417969 61.757812 C 149.160156 62.460938 149.84375 62.675781 151.367188 62.675781 C 152.734375 62.675781 154.21875 62.402344 154.453125 62.089844 C 154.589844 61.933594 154.882812 60.742188 155.019531 59.921875 C 155.097656 59.414062 155.078125 59.355469 154.941406 59.453125 C 154.667969 59.667969 153.261719 60.097656 152.617188 60.175781 C 151.035156 60.371094 150.332031 59.199219 150.78125 57.128906 C 150.839844 56.816406 150.957031 56.328125 151.015625 56.035156 C 151.230469 54.941406 151.621094 53.085938 151.738281 52.617188 C 151.796875 52.363281 152.089844 50.976562 152.382812 49.570312 C 152.675781 48.164062 152.988281 46.796875 153.046875 46.542969 L 153.164062 46.09375 L 157.929688 46.09375 L 158.066406 45.761719 C 158.183594 45.429688 158.359375 44.6875 158.496094 43.90625 L 158.554688 43.457031 L 153.867188 43.457031 L 153.867188 43.125 C 153.886719 42.949219 153.925781 42.597656 153.984375 42.324219 C 154.140625 41.582031 154.355469 40.566406 154.472656 40.117188 C 154.511719 39.882812 154.628906 39.414062 154.707031 39.101562 C 154.765625 38.75 154.84375 38.378906 154.902344 38.222656 C 155 37.851562 154.746094 37.890625 153.007812 38.417969 Z M 153.007812 38.417969 "/>
<path style=" stroke:none;fill-rule:nonzero;fill:rgb(0%,0%,0%);fill-opacity:1;" d="M 37.597656 43.144531 C 33.75 43.90625 30.644531 46.855469 29.277344 51.074219 C 28.730469 52.773438 28.554688 55.605469 28.90625 57.324219 C 29.492188 60.195312 31.347656 62.109375 34.101562 62.675781 C 35.175781 62.910156 37.539062 62.910156 38.613281 62.675781 C 39.101562 62.578125 40.039062 62.285156 40.722656 62.011719 C 41.796875 61.582031 41.972656 61.484375 42.03125 61.210938 C 42.050781 61.035156 42.128906 60.664062 42.1875 60.410156 C 42.363281 59.648438 42.539062 58.613281 42.480469 58.554688 C 42.460938 58.535156 42.03125 58.75 41.503906 59.003906 C 37.558594 61.054688 33.769531 60.605469 32.421875 57.949219 C 31.894531 56.914062 31.621094 55.078125 31.972656 54.746094 C 32.050781 54.648438 32.5 54.589844 33.144531 54.589844 C 35.117188 54.589844 37.714844 54.277344 39.511719 53.808594 C 41.132812 53.378906 42.050781 52.988281 43.105469 52.246094 C 44.472656 51.289062 45.175781 49.863281 45.195312 48.007812 C 45.214844 46.953125 45.175781 46.816406 44.824219 46.054688 C 44.179688 44.667969 43.085938 43.808594 41.347656 43.28125 C 40.449219 43.027344 38.632812 42.949219 37.597656 43.144531 Z M 40.253906 45.800781 C 41.425781 46.152344 42.070312 46.972656 42.070312 48.066406 C 42.070312 50.507812 39.511719 51.777344 34.121094 52.03125 C 32.050781 52.128906 32.148438 52.1875 32.460938 51.113281 C 33.046875 49.21875 34.6875 47.128906 36.289062 46.308594 C 37.578125 45.625 39.0625 45.449219 40.253906 45.800781 Z M 40.253906 45.800781 "/>
<path style=" stroke:none;fill-rule:nonzero;fill:rgb(0%,0%,0%);fill-opacity:1;" d="M 120.507812 43.125 C 115.371094 43.710938 111.660156 47.539062 110.566406 53.378906 C 110.292969 54.824219 110.3125 57.285156 110.605469 58.457031 C 111.328125 61.367188 113.164062 62.851562 115.976562 62.851562 C 118.242188 62.851562 119.765625 61.992188 121.367188 59.785156 C 121.757812 59.238281 122.128906 58.828125 122.167969 58.867188 C 122.226562 58.925781 122.226562 59.335938 122.148438 59.804688 C 121.894531 62.011719 121.894531 62.285156 122.070312 62.382812 C 122.265625 62.519531 124.785156 62.539062 124.980469 62.402344 C 125.058594 62.363281 125.15625 61.835938 125.195312 61.25 C 125.253906 60.644531 125.332031 59.824219 125.390625 59.394531 C 125.800781 56.757812 125.859375 56.464844 126.347656 54.316406 C 126.40625 54.042969 126.640625 52.890625 126.875 51.777344 C 127.109375 50.664062 127.363281 49.511719 127.421875 49.238281 C 127.480469 48.964844 127.578125 48.496094 127.65625 48.222656 C 128.359375 45.117188 128.59375 43.710938 128.398438 43.710938 C 128.339844 43.710938 127.65625 43.59375 126.875 43.476562 C 124.082031 43.027344 122.246094 42.910156 120.507812 43.125 Z M 124.355469 45.839844 C 124.609375 45.898438 124.84375 45.996094 124.882812 46.015625 C 124.941406 46.09375 124.804688 46.953125 124.316406 49.21875 C 124.179688 49.824219 123.984375 50.761719 123.886719 51.25 C 123.046875 55.332031 120.996094 58.710938 118.671875 59.863281 C 117.929688 60.214844 117.714844 60.253906 116.875 60.253906 C 116.015625 60.253906 115.800781 60.214844 115.273438 59.921875 C 114.160156 59.316406 113.613281 58.144531 113.496094 56.132812 C 113.359375 53.613281 114.296875 50.488281 115.761719 48.535156 C 116.679688 47.285156 118.476562 46.132812 119.960938 45.78125 C 120.742188 45.605469 123.535156 45.644531 124.355469 45.839844 Z M 124.355469 45.839844 "/>
<path style=" stroke:none;fill-rule:nonzero;fill:rgb(0%,0%,0%);fill-opacity:1;" d="M 137.734375 43.144531 C 135.214844 43.632812 133.691406 44.84375 132.792969 47.109375 C 132.539062 47.734375 132.5 49.199219 132.714844 50.019531 C 133.105469 51.5625 133.984375 52.558594 136.621094 54.277344 C 137.578125 54.902344 138.515625 55.625 138.710938 55.859375 C 139.882812 57.285156 139.316406 59.335938 137.578125 60 C 136.171875 60.527344 133.867188 60.3125 131.757812 59.414062 C 131.25 59.199219 130.78125 59.023438 130.742188 59.023438 C 130.644531 59.023438 130.566406 59.316406 130.273438 60.664062 C 130.039062 61.835938 130.039062 61.875 131.210938 62.246094 C 132.460938 62.65625 133.808594 62.851562 135.273438 62.851562 C 136.992188 62.851562 138.125 62.636719 139.414062 62.011719 C 141.5625 60.996094 142.519531 59.355469 142.402344 56.972656 C 142.363281 56.054688 142.304688 55.742188 142.03125 55.195312 C 141.386719 53.984375 140.546875 53.164062 138.4375 51.835938 C 136.933594 50.898438 136.191406 50.253906 135.9375 49.609375 C 135.703125 49.0625 135.703125 47.929688 135.917969 47.402344 C 136.699219 45.566406 139.84375 45.058594 142.5 46.328125 C 142.910156 46.542969 143.300781 46.699219 143.359375 46.699219 C 143.4375 46.699219 143.554688 46.386719 143.632812 45.996094 C 143.691406 45.625 143.808594 45.15625 143.867188 44.980469 C 143.925781 44.785156 143.984375 44.453125 143.984375 44.238281 C 143.984375 43.867188 143.945312 43.847656 143.183594 43.613281 C 141.445312 43.046875 139.179688 42.871094 137.734375 43.144531 Z M 137.734375 43.144531 "/>
<path style=" stroke:none;fill-rule:nonzero;fill:rgb(0%,0%,0%);fill-opacity:1;" d="M 167.8125 43.164062 C 162.753906 44.082031 159.003906 49.121094 158.984375 55.019531 C 158.984375 59.199219 160.898438 61.953125 164.375 62.675781 C 165.605469 62.949219 167.890625 62.910156 169.082031 62.617188 C 170.175781 62.363281 171.855469 61.71875 172.109375 61.484375 C 172.265625 61.308594 172.871094 58.671875 172.773438 58.554688 C 172.734375 58.535156 172.34375 58.710938 171.894531 58.945312 C 171.464844 59.179688 170.605469 59.550781 170 59.746094 C 165.703125 61.191406 162.636719 59.765625 162.1875 56.132812 C 162.011719 54.726562 162.050781 54.667969 163.125 54.628906 C 169.257812 54.433594 173.125 53.203125 174.609375 50.996094 C 175.214844 50.058594 175.488281 49.160156 175.488281 47.949219 C 175.488281 46.835938 175.234375 46.054688 174.550781 45.136719 C 174.023438 44.414062 173.398438 43.964844 172.34375 43.554688 C 170.976562 42.988281 169.453125 42.871094 167.8125 43.164062 Z M 170.507812 45.800781 C 171.640625 46.132812 172.34375 46.992188 172.34375 48.027344 C 172.34375 50.507812 169.824219 51.777344 164.375 52.03125 L 162.558594 52.128906 L 162.636719 51.601562 C 162.753906 50.859375 163.515625 49.277344 164.179688 48.398438 C 165.820312 46.230469 168.398438 45.15625 170.507812 45.800781 Z M 170.507812 45.800781 "/>
<path style=" stroke:none;fill-rule:nonzero;fill:rgb(0%,0%,0%);fill-opacity:1;" d="M 188.261719 43.144531 C 187.949219 43.242188 187.421875 43.417969 187.128906 43.574219 C 186.425781 43.945312 185.058594 45.332031 184.335938 46.464844 C 183.613281 47.539062 183.574219 47.460938 183.847656 45.371094 C 183.945312 44.570312 184.023438 43.828125 184.023438 43.691406 C 184.023438 43.476562 183.925781 43.457031 182.539062 43.457031 C 181.445312 43.457031 181.035156 43.496094 180.996094 43.613281 C 180.976562 43.691406 180.878906 44.433594 180.761719 45.253906 C 180.507812 47.089844 179.277344 53.222656 178.378906 57.109375 C 178.320312 57.285156 178.242188 57.617188 178.183594 57.890625 C 178.125 58.144531 178.027344 58.613281 177.96875 58.90625 C 177.363281 61.582031 177.246094 62.304688 177.382812 62.382812 C 177.65625 62.578125 180.058594 62.519531 180.234375 62.324219 C 180.332031 62.246094 180.527344 61.582031 180.664062 60.878906 C 180.820312 60.15625 181.054688 59.082031 181.191406 58.496094 C 181.542969 56.855469 181.621094 56.503906 181.757812 55.859375 C 181.835938 55.527344 182.03125 54.707031 182.1875 54.023438 C 183.320312 49.296875 185.839844 46.09375 188.398438 46.09375 C 189.003906 46.09375 190.175781 46.386719 190.449219 46.621094 C 190.566406 46.699219 190.625 46.699219 190.703125 46.601562 C 190.800781 46.425781 191.09375 44.414062 191.113281 43.769531 L 191.132812 43.28125 L 190.46875 43.144531 C 189.628906 42.96875 189.003906 42.96875 188.261719 43.144531 Z M 188.261719 43.144531 "/>
<path style=" stroke:none;fill-rule:nonzero;fill:rgb(0%,0%,0%);fill-opacity:1;" d="M 48.359375 43.515625 C 48.320312 43.574219 48.320312 43.769531 48.398438 43.984375 C 48.4375 44.199219 48.535156 44.726562 48.613281 45.195312 C 48.691406 45.644531 48.808594 46.25 48.867188 46.523438 C 48.925781 46.777344 49.0625 47.5 49.160156 48.125 C 49.277344 48.75 49.453125 49.804688 49.589844 50.46875 C 49.707031 51.132812 49.882812 51.992188 49.941406 52.382812 C 50.019531 52.773438 50.117188 53.320312 50.175781 53.574219 C 50.234375 53.847656 50.351562 54.414062 50.410156 54.84375 C 50.488281 55.273438 50.585938 55.859375 50.644531 56.152344 C 50.722656 56.445312 50.898438 57.441406 51.074219 58.378906 C 51.503906 60.800781 51.621094 61.308594 51.738281 61.835938 C 51.855469 62.324219 51.835938 62.324219 50.234375 64.746094 C 48.554688 67.265625 48.085938 67.792969 46.953125 68.339844 C 46.386719 68.632812 46.171875 68.671875 45.234375 68.632812 C 44.648438 68.632812 44.023438 68.613281 43.867188 68.574219 C 43.710938 68.554688 43.554688 68.613281 43.496094 68.730469 C 43.398438 68.925781 43.203125 69.824219 43.085938 70.585938 C 42.988281 71.191406 43.046875 71.210938 44.453125 71.308594 C 46.894531 71.484375 49.023438 70.46875 50.957031 68.242188 C 52.128906 66.894531 51.621094 67.675781 60.410156 53.515625 C 62.460938 50.195312 64.316406 47.207031 64.53125 46.875 C 65.429688 45.46875 66.503906 43.691406 66.503906 43.574219 C 66.503906 43.515625 65.859375 43.457031 64.84375 43.457031 L 63.203125 43.457031 L 62.363281 44.863281 C 61.914062 45.644531 61.074219 47.050781 60.527344 48.007812 C 58.574219 51.347656 55.761719 56.132812 54.941406 57.539062 C 54.628906 58.066406 54.296875 58.671875 54.179688 58.886719 C 54.0625 59.121094 53.964844 59.257812 53.925781 59.238281 C 53.90625 59.21875 53.808594 58.59375 53.710938 57.832031 C 53.59375 57.070312 53.359375 55.390625 53.164062 54.121094 C 52.949219 52.832031 52.65625 50.917969 52.5 49.863281 C 52.34375 48.808594 52.089844 47.207031 51.953125 46.269531 C 51.816406 45.351562 51.660156 44.355469 51.621094 44.0625 L 51.542969 43.515625 L 49.980469 43.496094 C 49.140625 43.476562 48.398438 43.496094 48.359375 43.515625 Z M 48.359375 43.515625 "/>
</g>
</svg>
